<svg xmlns="http://www.w3.org/2000/svg" width="31" height="25" viewBox="0 0 31 25" fill="none">
<path fill-rule="evenodd" clip-rule="evenodd" d="M24 9.9C24 15.3676 18.6274 19.8 12 19.8C11.1069 19.8 10.2366 19.7195 9.39917 19.5668L7.63636 20.9C6.56968 21.617 5.31355 22 4.02827 22H3.27272L3.63721 21.6325C4.11497 21.1507 4.47447 20.5647 4.68742 19.9205C4.83425 19.4763 4.90908 19.0116 4.90908 18.5438V17.8875C1.93245 16.0859 0 13.1791 0 9.9C0 4.43238 5.37258 0 12 0C18.6274 0 24 4.43238 24 9.9ZM13.5 21.5C15.1476 22.2022 17.0177 22.8 19 22.8C19.8931 22.8 20.7634 22.7195 21.6008 22.5668L23.3636 23.9C24.4303 24.617 25.6864 25 26.9717 25H27.7273L27.3628 24.6325C26.885 24.1507 26.5255 23.5647 26.3126 22.9205C26.1657 22.4763 26.0909 22.0116 26.0909 21.5438V20.8875C28.73 19.2902 30.5483 16.8241 30.9268 14H24.5C23.2397 17.1509 20.5811 19.533 17.3113 20.4413L13.5 21.5Z" fill="#828282"/>
</svg>