<svg xmlns="http://www.w3.org/2000/svg" width="28" height="28" viewBox="0 0 28 28" fill="none">
<path fill-rule="evenodd" clip-rule="evenodd" d="M13 3.04488C13 3.04488 12.7484 0 14 0C15.2516 0 15 3 15 3C16.2371 3.11148 17.4152 3.47267 18.5 3.95963C18.5 3.95963 19.9826 1.29029 21 2C21.9848 2.68698 20.5 5 20.5 5C21.5376 5.73068 22.2693 6.63626 23 7.67388C23 7.67388 25.2456 6.06577 26 7C26.8068 7.99922 24.13 9.70527 24.13 9.70527C24.5662 10.7329 24.8507 11.8405 24.9552 13C24.9552 13 28 12.7484 28 14C28 15.2516 24.9552 15.0001 24.9552 15.0001C24.8326 16.36 24.4626 17.6485 23.8904 18.8202C23.8904 18.8202 26.0971 20.5306 25.5 21.5C24.8771 22.5113 22.5 21 22.5 21L22.4335 21.0627C21.8799 21.7231 21.2502 22.3175 20.5578 22.8324C20.5578 22.8324 21.9294 25.2604 21 26C19.9866 26.8065 18.2474 24.15 18.2474 24.15C17.2331 24.575 16.1417 24.8523 15 24.9552C15 24.9552 15.2516 28 14 28C12.7484 28 13 24.9552 13 24.9552C11.7629 24.8437 10.5848 24.5274 9.5 24.0405C9.5 24.0405 8.02976 26.6916 7 26C6.01402 25.3378 7.37961 22.7855 7.37961 22.7855C6.43806 22.0749 5.61436 21.2164 4.94304 20.2445C4.96191 20.2718 4.98089 20.2991 5 20.3262C5 20.3262 2.42123 22.1105 2 21C1.60826 19.9672 4.0296 18.6529 4.0296 18.6529C3.50291 17.5262 3.16158 16.2955 3.04484 15C3.04484 15 0 15.2516 0 14C0 12.7485 3.04484 13 3.04484 13C3.13942 11.9506 3.38139 10.9436 3.7499 10C3.7499 10 1.49084 8.51841 2 7.50004C2.5 6.5 4.68842 8.1412 4.68842 8.1412C5.30472 7.16375 6.07067 6.29012 6.95411 5.55247L7 5.50004C7 5.50004 5.48869 3.1229 6.5 2.50004C7.46945 1.90296 9 4.00004 9 4.00004C10.1834 3.41569 11.6232 3.16896 13 3.04488ZM23 14C23 18.9706 18.9706 23 14 23C9.02944 23 5 18.9706 5 14C5 9.02944 9.02944 5 14 5C18.9706 5 23 9.02944 23 14ZM14 7C17.5265 7 20.4439 9.60771 20.9291 13L15.5658 13C15.1937 13 14.8267 12.9134 14.4939 12.747C14.1689 12.5844 13.8851 12.3502 13.6639 12.0618L10.5 7.93648C11.5296 7.34088 12.725 7 14 7ZM9.10102 9C7.80447 10.2705 7 12.0413 7 14C7 16.3787 8.18652 18.4804 10 19.7453L12.7934 14.8612C12.9288 14.6245 13 14.3566 13 14.0839C13 13.7073 12.8642 13.3433 12.6176 13.0587L9.10102 9ZM11.2381 20.434C12.0854 20.7983 13.0192 21 14 21C17.5265 21 20.5148 17.8923 21 14.5H15.4665C15.1597 14.5 14.8571 14.5714 14.5827 14.7086C14.2043 14.8979 13.8965 15.2036 13.7048 15.5808L11.2381 20.434Z" fill="#666666"/>
</svg>