<svg xmlns="http://www.w3.org/2000/svg" width="20" height="20" viewBox="0 0 20 20" fill="none" style="&#10;    background: black;&#10;">
<path fill-rule="evenodd" clip-rule="evenodd" d="M20 1.26149C19.9982 1.09128 19.9323 0.933882 19.8124 0.815834L19.1764 0.186244C18.9238 -0.0635785 18.513 -0.0608332 18.2631 0.188989C18.0838 0.367434 17.9245 0.528492 17.8138 0.640135L19.3603 2.17018C19.4711 2.05763 19.6303 1.89657 19.8087 1.71812C19.9323 1.5955 20 1.43261 20 1.26149ZM0 4.4876V17.6083C0 18.9288 1.07067 20.0041 2.38567 20.0041H15.4597C16.7747 20.0041 17.8445 18.9288 17.8445 17.6083V6.67835L16.5588 7.95858V17.6083C16.5588 18.2178 16.0655 18.7129 15.4597 18.7129H2.38567C1.77896 18.7129 1.28572 18.2178 1.28572 17.6083V4.4876C1.28572 3.87906 1.77896 3.38399 2.38567 3.38399H12.2038L13.5014 2.09186H2.38567C1.07067 2.09186 0 3.16711 0 4.4876ZM7.97136 10.4446L7.41498 12.5173L9.5188 11.9709L18.9068 2.61586L17.363 1.08489L7.97136 10.4446Z" fill="white"/>
</svg>